# xmcd
#
# Track frame offsets:
#	150
#	15405
#	32090
#	47745
#	62811
#	77935
#	94138
#	109340
#	126090
#	141748
#	160132
#	176487
#	190379
#	191289
#	192502
#	193424
#	194338
#	195240
#
# Disc length: 2611 seconds
#
# Revision: 0
# Processed by: cddbd v1.5.2PL0 Copyright (c) Steve Scherf et al.
# Submitted via: audiograbber 1.83.01
#
DISCID=080a3112
DTITLE=Various Artist - CDX 591
DYEAR=2014
DGENRE=Country
TTITLE0=Kacey Musgraves - Keep It To Yourself
TTITLE1=Rachel Holder - Shining Now
TTITLE2=Jon Pardi - What I Can't Put Down
TTITLE3=Ashton Shepherd - Seventeen Again
TTITLE4=Joe Allen - Can't Take These Things
TTITLE5=Hub Reynolds Jr - Hell I'm Just Me
TTITLE6=CPat Waters and Rachel Sizemore - Hey Paula
TTITLE7=Markus Fox - I'm Still Coming Home
TTITLE8=Jeff Maddox - Running
TTITLE9=Ray Price w. Vince Gill - Beauty Lies In The Eyes Of The Beholder
TTITLE10=Ray Price - I Wish I Was 18 Again
TTITLE11=Ray Price - This Thing Of Ours
TTITLE12=Mary Sarah - Home Town Country (Liner)
TTITLE13=Mary Sarah - My New Single (Liner)
TTITLE14=Mary Sarah - Super Country Greatest Hits (Liner)
TTITLE15=Mary Sarah - The Best In Country Music (Liner)
TTITLE16=Mary Sarah - Today's Best Country (Liner)
TTITLE17=Mary Sarah - Today's Hot Country Music (Liner)
EXTD=
EXTT0=
EXTT1=
EXTT2=
EXTT3=
EXTT4=
EXTT5=
EXTT6=
EXTT7=
EXTT8=
EXTT9=
EXTT10=
EXTT11=
EXTT12=
EXTT13=
EXTT14=
EXTT15=
EXTT16=
EXTT17=
PLAYORDER=
